<svg xmlns="http://www.w3.org/2000/svg" xmlns:xlink="http://www.w3.org/1999/xlink" width="500" zoomAndPan="magnify" viewBox="0 0 375 374.999991" height="500" preserveAspectRatio="xMidYMid meet" version="1.0"><defs><g/></defs><g fill="#a97c50" fill-opacity="1"><g transform="translate(18.549008, 212.977546)"><g><path d="M 2.195312 0 L 20.347656 0 L 20.347656 -0.953125 C 17.128906 -0.953125 15.519531 -1.390625 15.296875 -4.171875 L 15.296875 -27.011719 L 37.769531 -27.011719 L 37.769531 -4.90625 C 37.769531 -1.464844 36.160156 -0.953125 32.648438 -0.953125 L 32.648438 0 L 50.875 0 L 50.875 -0.953125 C 47.359375 -0.953125 45.824219 -1.464844 45.824219 -4.757812 L 45.824219 -48.457031 C 45.824219 -51.898438 47.359375 -52.410156 50.875 -52.410156 L 50.875 -53.363281 L 32.648438 -53.363281 L 32.648438 -52.410156 C 36.160156 -52.410156 37.769531 -51.898438 37.769531 -48.457031 L 37.769531 -27.960938 L 15.296875 -27.960938 L 15.296875 -48.675781 C 15.371094 -51.898438 16.910156 -52.410156 20.347656 -52.410156 L 20.347656 -53.363281 L 2.195312 -53.363281 L 2.195312 -52.410156 C 5.710938 -52.410156 7.246094 -51.898438 7.246094 -48.457031 L 7.246094 -4.90625 C 7.246094 -1.464844 5.710938 -0.953125 2.195312 -0.953125 Z M 2.195312 0 "/></g></g></g><g fill="#a97c50" fill-opacity="1"><g transform="translate(90.868264, 212.977546)"><g><path d="M 2.195312 0 L 41.796875 0 L 46.992188 -21.007812 L 46.042969 -21.007812 C 42.675781 -9.808594 37.699219 -0.953125 25.179688 -0.953125 C 17.714844 -0.953125 15.371094 -1.539062 15.371094 -4.90625 L 15.371094 -27.523438 L 23.789062 -27.523438 C 32.207031 -27.523438 32.207031 -22.910156 32.207031 -15.445312 L 33.160156 -15.445312 L 33.160156 -39.675781 L 32.207031 -39.675781 C 32.207031 -32.28125 31.695312 -28.546875 23.789062 -28.476562 L 15.371094 -28.476562 L 15.371094 -48.457031 C 15.371094 -51.898438 18.375 -52.335938 28.914062 -52.335938 C 37.183594 -52.335938 40.261719 -50.140625 42.96875 -41.796875 L 43.917969 -41.796875 L 40.039062 -53.363281 L 2.195312 -53.363281 L 2.195312 -52.410156 C 5.710938 -52.410156 7.246094 -51.898438 7.246094 -48.457031 L 7.320312 -4.171875 C 7.027344 -1.464844 5.417969 -0.953125 2.195312 -0.953125 Z M 2.195312 0 "/></g></g></g><g fill="#a97c50" fill-opacity="1"><g transform="translate(159.015539, 212.977546)"><g><path d="M 2.195312 0 L 20.347656 0 L 20.347656 -0.953125 C 16.835938 -0.953125 15.296875 -1.539062 15.296875 -4.90625 L 15.296875 -27.011719 L 21.667969 -27.011719 L 34.476562 -8.417969 C 37.257812 -4.390625 40.625 0 46.703125 0 L 53.949219 0 L 53.949219 -0.953125 C 51.167969 -0.953125 48.75 -1.757812 46.554688 -4.90625 L 33.378906 -24.007812 C 32.28125 -23.132812 30.964844 -22.617188 29.574219 -22.617188 C 27.230469 -22.617188 24.667969 -24.007812 22.765625 -27.011719 L 25.839844 -27.011719 C 34.402344 -27.011719 45.089844 -28.839844 45.089844 -40.332031 C 45.089844 -52.042969 33.816406 -53.363281 22.984375 -53.363281 L 2.195312 -53.363281 L 2.195312 -52.410156 C 5.636719 -52.410156 7.246094 -51.898438 7.246094 -48.457031 L 7.246094 -4.90625 C 7.246094 -1.539062 5.636719 -0.953125 2.195312 -0.953125 Z M 15.296875 -27.960938 L 15.296875 -52.410156 L 24.449219 -52.410156 C 32.574219 -52.410156 37.113281 -48.164062 37.113281 -40.261719 C 37.113281 -30.449219 30.816406 -27.960938 23.058594 -27.960938 Z M 15.296875 -27.960938 "/></g></g></g><g fill="#a97c50" fill-opacity="1"><g transform="translate(232.945056, 212.977546)"><g><path d="M 2.195312 -52.410156 C 5.5625 -52.410156 7.171875 -51.898438 7.246094 -48.75 L 7.246094 -4.757812 C 7.246094 -1.464844 5.710938 -0.953125 2.195312 -0.953125 L 2.195312 0 L 27.082031 0 C 45.382812 0 48.386719 -9.003906 48.386719 -15.445312 C 48.386719 -22.765625 42.675781 -27.304688 33.378906 -27.304688 L 33.378906 -27.597656 C 40.261719 -27.667969 45.089844 -32.574219 45.089844 -40.113281 C 45.089844 -52.042969 33.890625 -53.363281 23.058594 -53.363281 L 2.195312 -53.363281 Z M 24.449219 -27.011719 C 32.941406 -27.011719 39.601562 -24.816406 39.601562 -15.589844 C 39.601562 -5.417969 34.257812 -0.878906 23.203125 -0.878906 C 16.617188 -0.878906 15.371094 -1.316406 15.371094 -4.757812 L 15.371094 -27.011719 Z M 15.371094 -48.75 C 15.371094 -52.117188 16.980469 -52.410156 24.523438 -52.410156 C 33.011719 -52.410156 37.039062 -48.09375 37.039062 -40.113281 C 37.039062 -30.011719 30.890625 -27.890625 23.132812 -27.890625 L 15.371094 -27.890625 Z M 15.371094 -48.75 "/></g></g></g><g fill="#a97c50" fill-opacity="1"><g transform="translate(303.507689, 212.977546)"><g><path d="M 3.660156 0 L 4.613281 0 C 4.613281 -1.828125 5.855469 -2.5625 7.980469 -2.5625 C 11.492188 -2.5625 13.90625 0.878906 21.886719 0.878906 C 34.257812 0.878906 38.136719 -5.269531 38.136719 -12.738281 C 38.136719 -28.402344 11.785156 -30.742188 11.785156 -45.089844 C 11.785156 -49.335938 14.128906 -52.484375 19.984375 -52.484375 C 28.109375 -52.484375 34.257812 -45.894531 34.257812 -36.085938 L 35.210938 -36.085938 L 35.210938 -53.363281 L 34.257812 -53.363281 C 34.257812 -51.167969 33.671875 -50.433594 31.769531 -50.433594 C 28.765625 -50.433594 26.425781 -54.167969 18.957031 -54.167969 C 11.785156 -54.167969 3.734375 -50.070312 3.734375 -41.578125 C 3.734375 -27.449219 30.816406 -21.886719 30.816406 -9.734375 C 30.816406 -3.222656 26.132812 -0.953125 20.640625 -0.953125 C 11.640625 -0.953125 4.613281 -7.320312 4.613281 -21.960938 L 3.660156 -21.960938 Z M 3.660156 0 "/></g></g></g><g fill="#a97c50" fill-opacity="1"><g transform="translate(77.853859, 255.077851)"><g><path d="M 11.746094 -5.960938 C 11.746094 -4.601562 11.257812 -3.449219 10.316406 -2.511719 C 9.359375 -1.550781 8.210938 -1.082031 6.867188 -1.082031 C 5.523438 -1.082031 4.375 -1.550781 3.433594 -2.511719 C 2.476562 -3.449219 2.003906 -4.601562 2.003906 -5.960938 C 2.003906 -7.285156 2.476562 -8.4375 3.433594 -9.394531 C 4.375 -10.335938 5.523438 -10.824219 6.867188 -10.824219 C 8.210938 -10.824219 9.359375 -10.335938 10.316406 -9.394531 C 11.257812 -8.4375 11.746094 -7.285156 11.746094 -5.960938 Z M 12.96875 -5.960938 C 12.96875 -6.796875 12.792969 -7.582031 12.480469 -8.332031 C 12.164062 -9.0625 11.730469 -9.707031 11.171875 -10.265625 C 10.613281 -10.804688 9.96875 -11.242188 9.238281 -11.554688 C 8.488281 -11.871094 7.703125 -12.042969 6.867188 -12.042969 C 6.03125 -12.042969 5.230469 -11.871094 4.496094 -11.554688 C 3.765625 -11.242188 3.121094 -10.804688 2.5625 -10.265625 C 2.003906 -9.707031 1.570312 -9.0625 1.253906 -8.332031 C 0.941406 -7.582031 0.785156 -6.796875 0.785156 -5.960938 C 0.785156 -5.125 0.941406 -4.324219 1.253906 -3.589844 C 1.570312 -2.839844 2.003906 -2.195312 2.5625 -1.636719 C 3.121094 -1.082031 3.765625 -0.644531 4.496094 -0.332031 C 5.230469 -0.015625 6.03125 0.140625 6.867188 0.140625 C 7.703125 0.140625 8.488281 -0.015625 9.238281 -0.332031 C 9.96875 -0.644531 10.613281 -1.082031 11.171875 -1.636719 C 11.730469 -2.195312 12.164062 -2.839844 12.480469 -3.589844 C 12.792969 -4.324219 12.96875 -5.125 12.96875 -5.960938 Z M 12.96875 -5.960938 "/></g></g></g><g fill="#a97c50" fill-opacity="1"><g transform="translate(92.4154, 255.077851)"><g><path d="M 5.246094 -6.082031 L 5.246094 -7.667969 C 5.003906 -7.773438 4.742188 -7.824219 4.480469 -7.824219 C 3.609375 -7.824219 2.980469 -7.335938 2.578125 -6.394531 L 2.527344 -6.082031 L 2.527344 -7.667969 L 1.308594 -7.667969 L 1.308594 0 L 2.527344 0 L 2.527344 -3.835938 C 2.527344 -4.460938 2.667969 -5.019531 2.964844 -5.523438 C 3.101562 -5.785156 3.292969 -6.011719 3.519531 -6.1875 C 3.746094 -6.363281 4.027344 -6.464844 4.339844 -6.464844 C 4.652344 -6.464844 4.949219 -6.328125 5.246094 -6.082031 Z M 5.246094 -6.082031 "/></g></g></g><g fill="#a97c50" fill-opacity="1"><g transform="translate(98.651499, 255.077851)"><g><path d="M 7.511719 -3.835938 C 7.511719 -3.085938 7.25 -2.421875 6.726562 -1.882812 C 6.203125 -1.324219 5.558594 -1.046875 4.808594 -1.046875 C 4.0625 -1.046875 3.417969 -1.324219 2.894531 -1.882812 C 2.371094 -2.421875 2.109375 -3.066406 2.109375 -3.835938 C 2.109375 -4.582031 2.371094 -5.230469 2.894531 -5.785156 C 3.417969 -6.34375 4.0625 -6.621094 4.808594 -6.621094 C 5.558594 -6.621094 6.203125 -6.34375 6.726562 -5.785156 C 7.25 -5.230469 7.511719 -4.566406 7.511719 -3.835938 Z M 2.074219 1.046875 L 0.820312 1.046875 C 0.957031 1.863281 1.324219 2.578125 1.953125 3.191406 C 2.71875 3.972656 3.660156 4.355469 4.757812 4.355469 C 5.839844 4.355469 6.78125 3.972656 7.5625 3.191406 C 8.332031 2.421875 8.730469 1.480469 8.730469 0.382812 L 8.730469 -7.667969 L 7.511719 -7.667969 L 7.511719 -6.378906 C 7.441406 -6.449219 7.371094 -6.535156 7.304688 -6.621094 C 6.535156 -7.425781 5.648438 -7.84375 4.636719 -7.84375 C 3.554688 -7.84375 2.667969 -7.425781 1.933594 -6.621094 C 1.238281 -5.820312 0.890625 -4.898438 0.890625 -3.835938 C 0.890625 -2.753906 1.238281 -1.828125 1.933594 -1.046875 C 2.667969 -0.226562 3.554688 0.175781 4.636719 0.175781 C 5.683594 0.175781 6.570312 -0.226562 7.304688 -1.046875 C 7.371094 -1.117188 7.441406 -1.203125 7.511719 -1.273438 L 7.511719 0.382812 C 7.511719 1.148438 7.234375 1.796875 6.691406 2.335938 C 6.152344 2.875 5.507812 3.136719 4.757812 3.136719 C 3.992188 3.136719 3.347656 2.875 2.804688 2.335938 C 2.421875 1.953125 2.179688 1.535156 2.074219 1.046875 Z M 2.074219 1.046875 "/></g></g></g><g fill="#a97c50" fill-opacity="1"><g transform="translate(109.503167, 255.077851)"><g><path d="M 7.40625 -3.835938 C 7.40625 -3.085938 7.144531 -2.421875 6.621094 -1.882812 C 6.101562 -1.324219 5.457031 -1.046875 4.707031 -1.046875 C 3.9375 -1.046875 3.292969 -1.324219 2.769531 -1.882812 C 2.25 -2.421875 2.003906 -3.085938 2.003906 -3.835938 C 2.003906 -4.566406 2.25 -5.230469 2.769531 -5.785156 C 3.292969 -6.34375 3.9375 -6.621094 4.707031 -6.621094 C 5.457031 -6.621094 6.101562 -6.34375 6.621094 -5.785156 C 7.144531 -5.230469 7.40625 -4.566406 7.40625 -3.835938 Z M 8.628906 0 L 8.628906 -7.667969 L 7.40625 -7.667969 L 7.40625 -6.34375 C 7.335938 -6.449219 7.25 -6.535156 7.179688 -6.621094 C 6.449219 -7.425781 5.558594 -7.84375 4.515625 -7.84375 C 3.449219 -7.84375 2.5625 -7.425781 1.828125 -6.621094 C 1.132812 -5.820312 0.785156 -4.898438 0.785156 -3.835938 C 0.785156 -2.753906 1.132812 -1.828125 1.828125 -1.046875 C 2.5625 -0.226562 3.449219 0.175781 4.515625 0.175781 C 5.558594 0.175781 6.449219 -0.226562 7.179688 -1.046875 C 7.25 -1.117188 7.335938 -1.203125 7.40625 -1.308594 L 7.40625 0 Z M 8.628906 0 "/></g></g></g><g fill="#a97c50" fill-opacity="1"><g transform="translate(120.250329, 255.077851)"><g><path d="M 6.605469 0 L 7.824219 0 L 7.824219 -4.792969 C 7.824219 -5.683594 7.582031 -6.394531 7.128906 -6.9375 C 6.882812 -7.214844 6.605469 -7.425781 6.273438 -7.582031 C 5.925781 -7.738281 5.488281 -7.824219 4.949219 -7.824219 C 4.390625 -7.824219 3.921875 -7.667969 3.503906 -7.390625 C 3.101562 -7.128906 2.769531 -6.78125 2.527344 -6.34375 L 2.527344 -7.667969 L 1.308594 -7.667969 L 1.308594 0 L 2.527344 0 L 2.527344 -3.207031 C 2.527344 -4.183594 2.703125 -4.949219 3.066406 -5.523438 C 3.277344 -5.839844 3.539062 -6.101562 3.871094 -6.308594 C 4.183594 -6.5 4.617188 -6.605469 5.140625 -6.605469 C 5.664062 -6.605469 6.03125 -6.414062 6.257812 -6.066406 C 6.484375 -5.714844 6.605469 -5.28125 6.605469 -4.792969 Z M 6.605469 0 "/></g></g></g><g fill="#a97c50" fill-opacity="1"><g transform="translate(129.935041, 255.077851)"><g><path d="M 2.542969 -10.316406 C 2.386719 -10.457031 2.195312 -10.542969 1.988281 -10.542969 C 1.777344 -10.542969 1.585938 -10.457031 1.445312 -10.316406 C 1.289062 -10.160156 1.21875 -9.96875 1.21875 -9.761719 C 1.21875 -9.550781 1.289062 -9.359375 1.445312 -9.21875 C 1.585938 -9.0625 1.777344 -8.992188 1.988281 -8.992188 C 2.195312 -8.992188 2.386719 -9.0625 2.542969 -9.21875 C 2.683594 -9.359375 2.769531 -9.550781 2.769531 -9.761719 C 2.769531 -9.96875 2.683594 -10.160156 2.542969 -10.316406 Z M 2.613281 0 L 2.613281 -7.667969 L 1.394531 -7.667969 L 1.394531 0 Z M 2.613281 0 "/></g></g></g><g fill="#a97c50" fill-opacity="1"><g transform="translate(134.742925, 255.077851)"><g><path d="M 8.46875 -4.914062 C 8.226562 -5.769531 7.757812 -6.464844 7.078125 -7.007812 C 6.363281 -7.546875 5.578125 -7.824219 4.707031 -7.824219 C 3.609375 -7.824219 2.667969 -7.425781 1.917969 -6.640625 C 1.148438 -5.855469 0.785156 -4.914062 0.785156 -3.835938 C 0.785156 -2.738281 1.148438 -1.8125 1.917969 -1.011719 C 2.265625 -0.644531 2.667969 -0.347656 3.15625 -0.140625 C 3.625 0.0703125 4.113281 0.175781 4.601562 0.175781 C 5.089844 0.175781 5.523438 0.121094 5.910156 -0.015625 C 7.128906 -0.453125 7.964844 -1.273438 8.402344 -2.511719 L 7.023438 -2.511719 C 6.78125 -2.074219 6.464844 -1.726562 6.046875 -1.480469 C 5.628906 -1.21875 5.195312 -1.097656 4.707031 -1.097656 C 3.957031 -1.097656 3.328125 -1.359375 2.804688 -1.898438 C 2.285156 -2.441406 2.039062 -3.085938 2.039062 -3.835938 C 2.039062 -4.550781 2.285156 -5.195312 2.804688 -5.734375 C 3.050781 -5.976562 3.328125 -6.1875 3.660156 -6.328125 C 3.972656 -6.464844 4.375 -6.554688 4.828125 -6.554688 C 5.28125 -6.554688 5.714844 -6.394531 6.167969 -6.101562 C 6.605469 -5.785156 6.9375 -5.402344 7.144531 -4.914062 Z M 8.46875 -4.914062 "/></g></g></g><g fill="#a97c50" fill-opacity="1"><g transform="translate(144.636646, 255.077851)"><g/></g></g><g fill="#a97c50" fill-opacity="1"><g transform="translate(150.158637, 255.077851)"><g><path d="M 7.40625 -3.835938 C 7.40625 -3.085938 7.144531 -2.421875 6.621094 -1.882812 C 6.101562 -1.324219 5.457031 -1.046875 4.707031 -1.046875 C 3.9375 -1.046875 3.292969 -1.324219 2.769531 -1.882812 C 2.25 -2.421875 2.003906 -3.085938 2.003906 -3.835938 C 2.003906 -4.566406 2.25 -5.230469 2.769531 -5.785156 C 3.292969 -6.34375 3.9375 -6.621094 4.707031 -6.621094 C 5.457031 -6.621094 6.101562 -6.34375 6.621094 -5.785156 C 7.144531 -5.230469 7.40625 -4.566406 7.40625 -3.835938 Z M 8.628906 0 L 8.628906 -7.667969 L 7.40625 -7.667969 L 7.40625 -6.34375 C 7.335938 -6.449219 7.25 -6.535156 7.179688 -6.621094 C 6.449219 -7.425781 5.558594 -7.84375 4.515625 -7.84375 C 3.449219 -7.84375 2.5625 -7.425781 1.828125 -6.621094 C 1.132812 -5.820312 0.785156 -4.898438 0.785156 -3.835938 C 0.785156 -2.753906 1.132812 -1.828125 1.828125 -1.046875 C 2.5625 -0.226562 3.449219 0.175781 4.515625 0.175781 C 5.558594 0.175781 6.449219 -0.226562 7.179688 -1.046875 C 7.25 -1.117188 7.335938 -1.203125 7.40625 -1.308594 L 7.40625 0 Z M 8.628906 0 "/></g></g></g><g fill="#a97c50" fill-opacity="1"><g transform="translate(160.9058, 255.077851)"><g><path d="M 6.605469 0 L 7.824219 0 L 7.824219 -4.792969 C 7.824219 -5.683594 7.582031 -6.394531 7.128906 -6.9375 C 6.882812 -7.214844 6.605469 -7.425781 6.273438 -7.582031 C 5.925781 -7.738281 5.488281 -7.824219 4.949219 -7.824219 C 4.390625 -7.824219 3.921875 -7.667969 3.503906 -7.390625 C 3.101562 -7.128906 2.769531 -6.78125 2.527344 -6.34375 L 2.527344 -7.667969 L 1.308594 -7.667969 L 1.308594 0 L 2.527344 0 L 2.527344 -3.207031 C 2.527344 -4.183594 2.703125 -4.949219 3.066406 -5.523438 C 3.277344 -5.839844 3.539062 -6.101562 3.871094 -6.308594 C 4.183594 -6.5 4.617188 -6.605469 5.140625 -6.605469 C 5.664062 -6.605469 6.03125 -6.414062 6.257812 -6.066406 C 6.484375 -5.714844 6.605469 -5.28125 6.605469 -4.792969 Z M 6.605469 0 "/></g></g></g><g fill="#a97c50" fill-opacity="1"><g transform="translate(170.590512, 255.077851)"><g><path d="M 7.40625 -3.835938 C 7.40625 -3.085938 7.144531 -2.421875 6.621094 -1.882812 C 6.101562 -1.324219 5.457031 -1.046875 4.707031 -1.046875 C 3.9375 -1.046875 3.292969 -1.324219 2.769531 -1.882812 C 2.25 -2.421875 2.003906 -3.085938 2.003906 -3.835938 C 2.003906 -4.566406 2.25 -5.230469 2.769531 -5.785156 C 3.292969 -6.34375 3.9375 -6.621094 4.707031 -6.621094 C 5.457031 -6.621094 6.101562 -6.34375 6.621094 -5.785156 C 7.144531 -5.230469 7.40625 -4.566406 7.40625 -3.835938 Z M 8.628906 0 L 8.628906 -13.070312 L 7.40625 -13.070312 L 7.40625 -6.34375 C 7.335938 -6.449219 7.25 -6.535156 7.179688 -6.621094 C 6.449219 -7.425781 5.558594 -7.84375 4.515625 -7.84375 C 3.449219 -7.84375 2.5625 -7.425781 1.828125 -6.621094 C 1.132812 -5.820312 0.785156 -4.898438 0.785156 -3.835938 C 0.785156 -2.753906 1.132812 -1.828125 1.828125 -1.046875 C 2.5625 -0.226562 3.449219 0.175781 4.515625 0.175781 C 5.558594 0.175781 6.449219 -0.226562 7.179688 -1.046875 C 7.25 -1.117188 7.335938 -1.203125 7.40625 -1.308594 L 7.40625 0 Z M 8.628906 0 "/></g></g></g><g fill="#a97c50" fill-opacity="1"><g transform="translate(181.337675, 255.077851)"><g/></g></g><g fill="#a97c50" fill-opacity="1"><g transform="translate(186.859666, 255.077851)"><g><path d="M 6.605469 0 L 7.824219 0 L 7.824219 -4.792969 C 7.824219 -5.683594 7.582031 -6.394531 7.128906 -6.9375 C 6.882812 -7.214844 6.605469 -7.425781 6.273438 -7.582031 C 5.925781 -7.738281 5.488281 -7.824219 4.949219 -7.824219 C 4.390625 -7.824219 3.921875 -7.667969 3.503906 -7.390625 C 3.101562 -7.128906 2.769531 -6.78125 2.527344 -6.34375 L 2.527344 -7.667969 L 1.308594 -7.667969 L 1.308594 0 L 2.527344 0 L 2.527344 -3.207031 C 2.527344 -4.183594 2.703125 -4.949219 3.066406 -5.523438 C 3.277344 -5.839844 3.539062 -6.101562 3.871094 -6.308594 C 4.183594 -6.5 4.617188 -6.605469 5.140625 -6.605469 C 5.664062 -6.605469 6.03125 -6.414062 6.257812 -6.066406 C 6.484375 -5.714844 6.605469 -5.28125 6.605469 -4.792969 Z M 6.605469 0 "/></g></g></g><g fill="#a97c50" fill-opacity="1"><g transform="translate(196.544378, 255.077851)"><g><path d="M 7.40625 -3.835938 C 7.40625 -3.085938 7.144531 -2.421875 6.621094 -1.882812 C 6.101562 -1.324219 5.457031 -1.046875 4.707031 -1.046875 C 3.9375 -1.046875 3.292969 -1.324219 2.769531 -1.882812 C 2.25 -2.421875 2.003906 -3.085938 2.003906 -3.835938 C 2.003906 -4.566406 2.25 -5.230469 2.769531 -5.785156 C 3.292969 -6.34375 3.9375 -6.621094 4.707031 -6.621094 C 5.457031 -6.621094 6.101562 -6.34375 6.621094 -5.785156 C 7.144531 -5.230469 7.40625 -4.566406 7.40625 -3.835938 Z M 8.628906 0 L 8.628906 -7.667969 L 7.40625 -7.667969 L 7.40625 -6.34375 C 7.335938 -6.449219 7.25 -6.535156 7.179688 -6.621094 C 6.449219 -7.425781 5.558594 -7.84375 4.515625 -7.84375 C 3.449219 -7.84375 2.5625 -7.425781 1.828125 -6.621094 C 1.132812 -5.820312 0.785156 -4.898438 0.785156 -3.835938 C 0.785156 -2.753906 1.132812 -1.828125 1.828125 -1.046875 C 2.5625 -0.226562 3.449219 0.175781 4.515625 0.175781 C 5.558594 0.175781 6.449219 -0.226562 7.179688 -1.046875 C 7.25 -1.117188 7.335938 -1.203125 7.40625 -1.308594 L 7.40625 0 Z M 8.628906 0 "/></g></g></g><g fill="#a97c50" fill-opacity="1"><g transform="translate(207.291541, 255.077851)"><g><path d="M 0.347656 -6.535156 L 2.265625 -6.535156 L 2.265625 0 L 3.484375 0 L 3.484375 -6.535156 L 5.386719 -6.535156 L 5.386719 -7.667969 L 3.484375 -7.667969 L 3.484375 -10.648438 L 2.265625 -10.648438 L 2.265625 -7.667969 L 0.347656 -7.667969 Z M 0.347656 -6.535156 "/></g></g></g><g fill="#a97c50" fill-opacity="1"><g transform="translate(213.841154, 255.077851)"><g><path d="M 6.605469 -1.308594 L 6.605469 0 L 7.824219 0 L 7.824219 -7.667969 L 6.605469 -7.667969 L 6.605469 -4.460938 C 6.605469 -3.382812 6.394531 -2.5625 5.996094 -1.953125 C 5.613281 -1.359375 4.933594 -1.0625 3.992188 -1.0625 C 3.46875 -1.0625 3.085938 -1.238281 2.859375 -1.585938 C 2.632812 -1.933594 2.527344 -2.371094 2.527344 -2.875 L 2.527344 -7.667969 L 1.308594 -7.667969 L 1.308594 -2.875 C 1.308594 -1.988281 1.535156 -1.253906 2.023438 -0.679688 C 2.511719 -0.121094 3.171875 0.15625 4.042969 0.15625 C 5.175781 0.15625 6.03125 -0.332031 6.605469 -1.308594 Z M 6.605469 -1.308594 "/></g></g></g><g fill="#a97c50" fill-opacity="1"><g transform="translate(223.525866, 255.077851)"><g><path d="M 5.246094 -6.082031 L 5.246094 -7.667969 C 5.003906 -7.773438 4.742188 -7.824219 4.480469 -7.824219 C 3.609375 -7.824219 2.980469 -7.335938 2.578125 -6.394531 L 2.527344 -6.082031 L 2.527344 -7.667969 L 1.308594 -7.667969 L 1.308594 0 L 2.527344 0 L 2.527344 -3.835938 C 2.527344 -4.460938 2.667969 -5.019531 2.964844 -5.523438 C 3.101562 -5.785156 3.292969 -6.011719 3.519531 -6.1875 C 3.746094 -6.363281 4.027344 -6.464844 4.339844 -6.464844 C 4.652344 -6.464844 4.949219 -6.328125 5.246094 -6.082031 Z M 5.246094 -6.082031 "/></g></g></g><g fill="#a97c50" fill-opacity="1"><g transform="translate(229.761975, 255.077851)"><g><path d="M 7.40625 -3.835938 C 7.40625 -3.085938 7.144531 -2.421875 6.621094 -1.882812 C 6.101562 -1.324219 5.457031 -1.046875 4.707031 -1.046875 C 3.9375 -1.046875 3.292969 -1.324219 2.769531 -1.882812 C 2.25 -2.421875 2.003906 -3.085938 2.003906 -3.835938 C 2.003906 -4.566406 2.25 -5.230469 2.769531 -5.785156 C 3.292969 -6.34375 3.9375 -6.621094 4.707031 -6.621094 C 5.457031 -6.621094 6.101562 -6.34375 6.621094 -5.785156 C 7.144531 -5.230469 7.40625 -4.566406 7.40625 -3.835938 Z M 8.628906 0 L 8.628906 -7.667969 L 7.40625 -7.667969 L 7.40625 -6.34375 C 7.335938 -6.449219 7.25 -6.535156 7.179688 -6.621094 C 6.449219 -7.425781 5.558594 -7.84375 4.515625 -7.84375 C 3.449219 -7.84375 2.5625 -7.425781 1.828125 -6.621094 C 1.132812 -5.820312 0.785156 -4.898438 0.785156 -3.835938 C 0.785156 -2.753906 1.132812 -1.828125 1.828125 -1.046875 C 2.5625 -0.226562 3.449219 0.175781 4.515625 0.175781 C 5.558594 0.175781 6.449219 -0.226562 7.179688 -1.046875 C 7.25 -1.117188 7.335938 -1.203125 7.40625 -1.308594 L 7.40625 0 Z M 8.628906 0 "/></g></g></g><g fill="#a97c50" fill-opacity="1"><g transform="translate(240.509146, 255.077851)"><g><path d="M 2.527344 0 L 2.527344 -13.070312 L 1.308594 -13.070312 L 1.308594 0 Z M 2.527344 0 "/></g></g></g><g fill="#a97c50" fill-opacity="1"><g transform="translate(245.160264, 255.077851)"><g/></g></g><g fill="#a97c50" fill-opacity="1"><g transform="translate(250.682264, 255.077851)"><g><path d="M 2.527344 0 L 2.527344 -5.296875 L 7.914062 -5.296875 L 7.914062 0 L 9.132812 0 L 9.132812 -11.851562 L 7.914062 -11.851562 L 7.914062 -6.519531 L 2.527344 -6.519531 L 2.527344 -11.851562 L 1.308594 -11.851562 L 1.308594 0 Z M 2.527344 0 "/></g></g></g><g fill="#a97c50" fill-opacity="1"><g transform="translate(261.934517, 255.077851)"><g><path d="M 8.800781 -4.007812 C 8.800781 -5.054688 8.382812 -5.960938 7.582031 -6.746094 C 6.796875 -7.496094 5.855469 -7.878906 4.792969 -7.878906 C 3.675781 -7.878906 2.738281 -7.476562 1.953125 -6.691406 C 1.167969 -5.910156 0.785156 -4.96875 0.785156 -3.871094 C 0.785156 -2.753906 1.167969 -1.8125 1.953125 -1.046875 C 2.316406 -0.679688 2.738281 -0.402344 3.222656 -0.191406 C 3.710938 0.015625 4.289062 0.121094 4.96875 0.121094 C 5.648438 0.121094 6.308594 -0.0859375 6.972656 -0.503906 C 7.632812 -0.921875 8.121094 -1.515625 8.453125 -2.25 L 7.058594 -2.25 C 6.78125 -1.882812 6.449219 -1.601562 6.046875 -1.394531 C 5.648438 -1.183594 5.230469 -1.097656 4.792969 -1.097656 C 4.128906 -1.097656 3.539062 -1.308594 3.015625 -1.742188 C 2.492188 -2.160156 2.160156 -2.703125 2.054688 -3.363281 L 8.800781 -3.363281 Z M 7.511719 -4.410156 L 2.074219 -4.410156 C 2.144531 -4.722656 2.265625 -5.019531 2.441406 -5.296875 C 2.996094 -6.203125 3.78125 -6.65625 4.792969 -6.65625 C 5.4375 -6.65625 6.011719 -6.449219 6.519531 -6.03125 C 7.042969 -5.59375 7.355469 -5.054688 7.511719 -4.410156 Z M 7.511719 -4.410156 "/></g></g></g><g fill="#a97c50" fill-opacity="1"><g transform="translate(272.246265, 255.077851)"><g><path d="M 5.246094 -6.082031 L 5.246094 -7.667969 C 5.003906 -7.773438 4.742188 -7.824219 4.480469 -7.824219 C 3.609375 -7.824219 2.980469 -7.335938 2.578125 -6.394531 L 2.527344 -6.082031 L 2.527344 -7.667969 L 1.308594 -7.667969 L 1.308594 0 L 2.527344 0 L 2.527344 -3.835938 C 2.527344 -4.460938 2.667969 -5.019531 2.964844 -5.523438 C 3.101562 -5.785156 3.292969 -6.011719 3.519531 -6.1875 C 3.746094 -6.363281 4.027344 -6.464844 4.339844 -6.464844 C 4.652344 -6.464844 4.949219 -6.328125 5.246094 -6.082031 Z M 5.246094 -6.082031 "/></g></g></g><g fill="#a97c50" fill-opacity="1"><g transform="translate(278.482373, 255.077851)"><g><path d="M 2.527344 0 L 2.527344 -1.308594 C 2.578125 -1.203125 2.667969 -1.117188 2.738281 -1.046875 C 3.46875 -0.226562 4.355469 0.175781 5.421875 0.175781 C 6.464844 0.175781 7.355469 -0.226562 8.085938 -1.046875 C 8.785156 -1.828125 9.148438 -2.753906 9.148438 -3.835938 C 9.148438 -4.898438 8.785156 -5.820312 8.085938 -6.621094 C 7.355469 -7.425781 6.464844 -7.84375 5.421875 -7.84375 C 4.355469 -7.84375 3.46875 -7.425781 2.738281 -6.621094 C 2.667969 -6.535156 2.578125 -6.449219 2.527344 -6.34375 L 2.527344 -13.070312 L 1.308594 -13.070312 L 1.308594 0 Z M 7.929688 -3.835938 C 7.929688 -3.085938 7.667969 -2.421875 7.144531 -1.882812 C 6.621094 -1.324219 5.976562 -1.046875 5.230469 -1.046875 C 4.460938 -1.046875 3.816406 -1.324219 3.292969 -1.882812 C 2.769531 -2.421875 2.527344 -3.085938 2.527344 -3.835938 C 2.527344 -4.566406 2.769531 -5.230469 3.292969 -5.785156 C 3.816406 -6.34375 4.460938 -6.621094 5.230469 -6.621094 C 5.976562 -6.621094 6.621094 -6.34375 7.144531 -5.785156 C 7.667969 -5.230469 7.929688 -4.566406 7.929688 -3.835938 Z M 7.929688 -3.835938 "/></g></g></g><g fill="#a97c50" fill-opacity="1"><g transform="translate(289.229545, 255.077851)"><g><path d="M 2.40625 -1.082031 C 2.109375 -1.289062 1.882812 -1.636719 1.761719 -2.144531 L 0.46875 -2.144531 C 0.730469 -0.558594 1.742188 0.226562 3.519531 0.226562 C 3.9375 0.226562 4.324219 0.191406 4.6875 0.0859375 C 5.054688 -0.015625 5.367188 -0.15625 5.664062 -0.347656 C 6.257812 -0.75 6.554688 -1.359375 6.554688 -2.179688 C 6.554688 -3.015625 6.167969 -3.609375 5.367188 -3.992188 C 5.035156 -4.148438 4.671875 -4.269531 4.269531 -4.355469 C 3.886719 -4.445312 3.519531 -4.550781 3.191406 -4.652344 C 2.839844 -4.757812 2.5625 -4.898438 2.335938 -5.054688 C 2.109375 -5.210938 1.988281 -5.457031 1.988281 -5.804688 C 1.988281 -6.152344 2.125 -6.414062 2.40625 -6.570312 C 2.683594 -6.746094 3.015625 -6.832031 3.382812 -6.832031 C 3.765625 -6.832031 4.097656 -6.746094 4.355469 -6.605469 C 4.617188 -6.464844 4.828125 -6.1875 4.949219 -5.769531 L 6.257812 -5.769531 C 6.101562 -6.535156 5.769531 -7.078125 5.28125 -7.371094 C 4.777344 -7.6875 4.164062 -7.84375 3.417969 -7.84375 C 2.683594 -7.84375 2.039062 -7.632812 1.5 -7.25 C 0.976562 -6.851562 0.695312 -6.273438 0.695312 -5.507812 C 0.695312 -5.140625 0.800781 -4.808594 0.992188 -4.53125 C 1.203125 -4.234375 1.5 -4.007812 1.882812 -3.835938 C 2.230469 -3.675781 2.597656 -3.554688 2.980469 -3.449219 C 3.363281 -3.363281 3.730469 -3.257812 4.078125 -3.15625 C 4.863281 -2.894531 5.261719 -2.511719 5.261719 -2.023438 C 5.261719 -1.183594 4.707031 -0.785156 3.589844 -0.785156 C 3.121094 -0.785156 2.71875 -0.871094 2.40625 -1.082031 Z M 2.40625 -1.082031 "/></g></g></g><g fill="#a97c50" fill-opacity="1"><g transform="translate(34.454325, 142.447615)"><g><path d="M 7.453125 -9.070312 C 9.949219 -8.472656 11.648438 -7.820312 12.554688 -7.085938 C 13.179688 -6.574219 13.488281 -5.921875 13.488281 -5.128906 C 13.488281 -4.335938 13.320312 -3.683594 12.980469 -3.230469 C 12.128906 -2.039062 10.597656 -1.445312 8.445312 -1.445312 C 5.441406 -1.445312 3.742188 -2.464844 3.371094 -4.507812 L 1.046875 -4.507812 C 1.730469 -1.246094 4.195312 0.367188 8.445312 0.367188 C 10.34375 0.367188 11.929688 -0.0273438 13.207031 -0.878906 C 14.738281 -1.871094 15.53125 -3.34375 15.53125 -5.269531 C 15.53125 -6.859375 14.90625 -8.078125 13.660156 -8.925781 C 12.78125 -9.550781 11.363281 -10.117188 9.410156 -10.628906 C 7.425781 -11.136719 6.148438 -11.5625 5.554688 -11.875 C 4.25 -12.527344 3.597656 -13.433594 3.628906 -14.625 C 3.628906 -15.246094 3.742188 -15.785156 4.023438 -16.183594 C 4.761719 -17.289062 6.066406 -17.855469 7.933594 -17.855469 C 10.570312 -17.855469 12.074219 -17.003906 12.46875 -15.359375 L 14.625 -15.359375 C 13.914062 -18.136719 11.675781 -19.554688 7.933594 -19.554688 C 6.234375 -19.554688 4.734375 -19.101562 3.484375 -18.195312 C 2.210938 -17.289062 1.558594 -15.957031 1.558594 -14.140625 C 1.558594 -11.675781 3.542969 -9.976562 7.453125 -9.070312 Z M 7.453125 -9.070312 "/></g></g></g><g fill="#a97c50" fill-opacity="1"><g transform="translate(71.922438, 142.447615)"><g><path d="M 16.070312 -6.375 L 16.070312 -19.269531 L 14.085938 -19.269531 L 14.085938 -6.09375 C 14.085938 -5.300781 13.941406 -4.648438 13.660156 -4.109375 C 12.839844 -2.523438 11.25 -1.730469 8.898438 -1.730469 C 7.367188 -1.730469 6.148438 -2.070312 5.242188 -2.75 C 4.195312 -3.515625 3.683594 -4.621094 3.683594 -6.09375 L 3.683594 -19.269531 L 1.699219 -19.269531 L 1.699219 -6.375 C 1.699219 -4.28125 2.378906 -2.636719 3.742188 -1.445312 C 5.015625 -0.3125 6.746094 0.253906 8.898438 0.253906 C 11.023438 0.253906 12.726562 -0.3125 14.027344 -1.445312 C 15.386719 -2.636719 16.070312 -4.28125 16.070312 -6.375 Z M 16.070312 -6.375 "/></g></g></g><g fill="#a97c50" fill-opacity="1"><g transform="translate(110.892566, 142.447615)"><g><path d="M 4.109375 -9.550781 L 4.109375 -17.371094 L 8.585938 -17.371094 C 9.75 -17.371094 10.683594 -17.003906 11.394531 -16.296875 C 12.074219 -15.558594 12.441406 -14.652344 12.441406 -13.519531 C 12.441406 -12.355469 12.074219 -11.421875 11.335938 -10.65625 C 10.597656 -9.917969 9.691406 -9.550781 8.585938 -9.550781 Z M 14.425781 -13.460938 C 14.425781 -15.160156 13.800781 -16.550781 12.609375 -17.65625 C 11.421875 -18.734375 10.003906 -19.269531 8.304688 -19.269531 L 2.125 -19.269531 L 2.125 0 L 4.109375 0 L 4.109375 -7.625 L 8.304688 -7.625 C 10.003906 -7.625 11.449219 -8.160156 12.609375 -9.238281 C 13.800781 -10.371094 14.425781 -11.761719 14.425781 -13.460938 Z M 14.425781 -13.460938 "/></g></g></g><g fill="#a97c50" fill-opacity="1"><g transform="translate(147.085396, 142.447615)"><g><path d="M 4.109375 -9.523438 L 4.109375 -17.371094 L 8.585938 -17.371094 C 9.75 -17.371094 10.683594 -17.003906 11.394531 -16.265625 C 12.074219 -15.53125 12.441406 -14.625 12.441406 -13.488281 C 12.441406 -12.355469 12.074219 -11.421875 11.335938 -10.65625 C 10.597656 -9.890625 9.691406 -9.523438 8.585938 -9.523438 Z M 14.425781 -13.460938 C 14.425781 -15.105469 13.800781 -16.523438 12.609375 -17.628906 C 11.449219 -18.703125 10.003906 -19.269531 8.304688 -19.269531 L 2.125 -19.269531 L 2.125 0 L 4.109375 0 L 4.109375 -7.625 L 6.40625 -7.625 L 12.074219 0 L 14.738281 0 L 8.785156 -7.625 C 10.289062 -7.707031 11.5625 -8.246094 12.609375 -9.238281 C 13.800781 -10.34375 14.425781 -11.761719 14.425781 -13.460938 Z M 14.425781 -13.460938 "/></g></g></g><g fill="#a97c50" fill-opacity="1"><g transform="translate(183.703327, 142.447615)"><g><path d="M 13.574219 0 L 13.574219 -1.84375 L 4.109375 -1.84375 L 4.109375 -8.699219 L 13.292969 -8.699219 L 13.292969 -10.570312 L 4.109375 -10.570312 L 4.109375 -17.429688 L 13.574219 -17.429688 L 13.574219 -19.269531 L 2.125 -19.269531 L 2.125 0 Z M 13.574219 0 "/></g></g></g><g fill="#a97c50" fill-opacity="1"><g transform="translate(220.604644, 142.447615)"><g><path d="M 19.894531 0 L 21.90625 0 L 17.429688 -20.546875 L 11.109375 -4.050781 L 4.789062 -20.546875 L 0.285156 0 L 2.324219 0 L 5.300781 -13.714844 L 11.109375 1.132812 L 16.890625 -13.714844 Z M 19.894531 0 "/></g></g></g><g fill="#a97c50" fill-opacity="1"><g transform="translate(263.995781, 142.447615)"><g><path d="M 13.574219 0 L 13.574219 -1.84375 L 4.109375 -1.84375 L 4.109375 -8.699219 L 13.292969 -8.699219 L 13.292969 -10.570312 L 4.109375 -10.570312 L 4.109375 -17.429688 L 13.574219 -17.429688 L 13.574219 -19.269531 L 2.125 -19.269531 L 2.125 0 Z M 13.574219 0 "/></g></g></g></svg>